PathFileType        4      (X/Y/Z)      C:\Users\pc\Desktop\IMUTRC\Sujet_07\Sujet_07_Tpose.trc         
DataRate	CameraRate	NumFrames	NumMarkers	Units	OrigDataRate	OrigDataStartFrame	OrigNumFrames
60.0	60.0	4	64	mm	60.0	19	146
Frame#	Time	pHipOrigin			pRightASI			pLeftASI			pRightCSI			pLeftCSI			pRightIschialTub			pLeftIschialTub			pSacrum			pL5SpinalProcess			pL3SpinalProcess			pT12SpinalProcess			pIJ			pT4SpinalProcess			pT8SpinalProcess			pPX			pC7SpinalProcess			pTopOfHead			pRightAuricularis			pLeftAuricularis			pBackOfHead			pRightAcromion			pLeftAcromion			pRightArmLatEpicondyle			pRightArmMedEpicondyle			pLeftArmLatEpicondyle			pLeftArmMedEpicondyle			pRightUlnarStyloid			pRightRadialStyloid			pRightOlecranon			pLeftUlnarStyloid			pLeftRadialStyloid			pLeftOlecranon			pRightTopOfHand			pRightPinky			pRightBallHand			pLeftTopOfHand			pLeftPinky			pLeftBallHand			pRightGreaterTrochanter			pRightKneeLatEpicondyle			pRightKneeMedEpicondyle			pRightPatella			pLeftGreaterTrochanter			pLeftKneeLatEpicondyle			pLeftKneeMedEpicondyle			pLeftPatella			pRightTibialTub			pRightLatMalleolus			pRightMedMalleolus			pLeftTibialTub			pLeftLatMalleolus			pLeftMedMalleolus			pRightHeelFoot			pRightFirstMetatarsal			pRightFifthMetatarsal			pRightPivotFoot			pRightHeelCenter			pRightToe			pLeftHeelFoot			pLeftFirstMetatarsal			pLeftFifthMetatarsal			pLeftPivotFoot			pLeftHeelCenter			pLeftToe			
		X1	Y1	Z1	X2	Y2	Z2	X3	Y3	Z3	X4	Y4	Z4	X5	Y5	Z5	X6	Y6	Z6	X7	Y7	Z7	X8	Y8	Z8	X9	Y9	Z9	X10	Y10	Z10	X11	Y11	Z11	X12	Y12	Z12	X13	Y13	Z13	X14	Y14	Z14	X15	Y15	Z15	X16	Y16	Z16	X17	Y17	Z17	X18	Y18	Z18	X19	Y19	Z19	X20	Y20	Z20	X21	Y21	Z21	X22	Y22	Z22	X23	Y23	Z23	X24	Y24	Z24	X25	Y25	Z25	X26	Y26	Z26	X27	Y27	Z27	X28	Y28	Z28	X29	Y29	Z29	X30	Y30	Z30	X31	Y31	Z31	X32	Y32	Z32	X33	Y33	Z33	X34	Y34	Z34	X35	Y35	Z35	X36	Y36	Z36	X37	Y37	Z37	X38	Y38	Z38	X39	Y39	Z39	X40	Y40	Z40	X41	Y41	Z41	X42	Y42	Z42	X43	Y43	Z43	X44	Y44	Z44	X45	Y45	Z45	X46	Y46	Z46	X47	Y47	Z47	X48	Y48	Z48	X49	Y49	Z49	X50	Y50	Z50	X51	Y51	Z51	X52	Y52	Z52	X53	Y53	Z53	X54	Y54	Z54	X55	Y55	Z55	X56	Y56	Z56	X57	Y57	Z57	X58	Y58	Z58	X59	Y59	Z59	X60	Y60	Z60	X61	Y61	Z61	X62	Y62	Z62	X63	Y63	Z63	X64	Y64	Z64	
19	0.3	0.1883094743139081	1002.4029	-0.9202215770582141	66.83049707569947	1106.28924	143.10806356980532	77.62848421745296	1104.06151	-140.99113877918725	22.33670125367712	1177.0567	115.61891855514389	31.206228291624996	1175.27452	-118.06079291368778	-61.49868409679594	944.25923	55.72666545427875	-57.045358077821994	943.36814	-61.14534147325257	-69.44057078343238	1025.8683	-3.735543296512089	-30.33625225579965	1117.79916	-2.852209781728976	-32.097106461288384	1234.68058	-4.554800833101152	-51.281265322961964	1339.53226	-6.97050298420978	51.18749403646743	1595.72087	-9.203740383290393	-94.49068436431655	1535.42372	-12.62479383904955	-76.6524041726713	1443.4186	-9.957181450628607	80.73676181306601	1471.19093	-5.433973498816992	-104.61918326458009	1594.82978	-11.269879139387578	-32.56431957900492	1861.11741	-13.399063975253409	-25.156989491165312	1755.9687	54.41478396417475	-59.60524458966459	1762.72614	-86.11748797313086	-97.38354358665667	1764.3598	-2.1191546868122146	-71.87590432614577	1577.82479	177.06707813284424	-58.747360678322195	1576.19113	-200.17784649457192	-39.598038187353154	1505.64644	451.3093140205484	15.23002637968753	1474.60678	437.4335805097671	-34.60777070671867	1464.50775	-468.77146279926933	19.245660892963542	1433.17105	-451.99862249185423	80.75339112329277	1435.69581	683.7959636909756	71.64565192269123	1487.67611	695.8581507285043	-10.989743521394018	1465.84438	434.7286541412055	-23.48776364703224	1384.90363	-715.557060007171	-42.47951933285077	1434.87898	-723.9495942343982	-0.21367587085279638	1425.89381	-452.6010625353314	253.25200738851498	1435.77007	776.3569760842836	183.2378967306268	1410.00269	717.3275929904956	117.72679203226937	1443.86414	687.4790547880149	16.829679518163232	1385.05215	-910.58718000056	19.12813088761021	1360.84418	-818.6274345511684	-3.0351375956600464	1394.03732	-749.7939274763545	-8.041401922177997	970.9177	173.8789166932944	-56.31308907417199	529.902	155.0124914076178	-52.864250203609494	526.48615	69.28628725668506	-6.48260495075035	526.11487	111.3274011400972	4.128501943916547	970.69492	-176.3095151260103	-52.4470844570433	530.34755	-167.129765011545	-54.90145541080159	525.74358	-81.3438698190144	-5.765227086778339	525.14952	-120.1135937685276	4.147037629315847	489.87717	113.26290012512501	-65.15878510380563	84.20807999999998	159.9376263592535	-62.42643575103414	81.53481	94.46235845622533	6.4092478746316885	491.5851	-121.74492295716492	-43.2451973494118	84.50511000000002	-179.65206100747585	-45.111687218095064	80.64372	-114.19136572310386	-102.54497907994454	-7.138061680832742E-15	116.5733938275516	65.85805157663908	0.5197999999999917	136.02998858176954	39.01727203710951	3.415849999999987	210.73746245898997	73.99786302815315	2.153469999999989	180.00084158371618	-64.39963399699207	5.198029999999992	130.10783807163028	160.9817792166146	1.3366399999999872	211.271319303988	-82.88626860439346	8.233123562730805E-15	-134.45711152738943	84.04805213644715	-0.81682999999999	-163.69433657752444	52.90058872458432	2.5990100000000145	-236.72578742128536	89.60623589342973	0.8910900000000128	-208.07393324242236	-45.61473213114084	4.901000000000009	-150.1518263752195	174.560970405029	-0.594059999999985	-244.42756976003747	
20	0.317	0.262569474313908	1002.4029	-1.048843670028279	66.84044102921445	1106.28924	142.9423201370893	77.63842817096794	1104.13577	-141.15688221190328	22.346658867446116	1177.0567	115.45317146217381	31.216172245139962	1175.27452	-118.22653634640379	-61.45161014328097	944.25923	55.49661097507769	-57.03541412430704	943.36814	-61.3110849059686	-69.43062182991741	1025.8683	-3.9012953894821485	-30.32630830228468	1117.72491	-3.0179532144450016	-32.087162507773414	1234.68058	-4.720544265817179	-51.308446369447	1339.53226	-7.071944030694812	51.12318298998238	1595.72087	-9.240870383290394	-94.51786541080158	1535.34947	-12.726234885534582	-76.67958521915632	1443.4186	-10.058622497113639	80.73676181306601	1471.19093	-5.433973498816992	-104.61918326458009	1594.82978	-11.269879139387578	-32.527189579004926	1861.11741	-13.463375021738441	-25.119864491165313	1755.9687	54.35048157794376	-59.63242563614964	1762.72614	-86.2189290196159	-97.34641358665667	1764.3598	-2.1834657332972527	-71.9402153726308	1577.82479	177.02994813284425	-58.83885277129227	1576.11687	-200.31641754105692	-39.62521923383818	1505.64644	451.20787297406343	15.26715637968752	1474.68103	437.36926946328214	-34.57064070671868	1464.28497	-468.8357738457544	19.28279089296356	1433.0968	-452.0629335383393	80.72620507680779	1435.69581	683.6945313047446	71.61846587620619	1487.67611	695.7567183422733	-11.016924567879045	1465.91864	434.6272130947205	-23.386336260801272	1384.53235	-715.5842373934018	-42.47951933285077	1434.50769	-723.9495942343982	-0.11223482436778909	1425.7453	-452.6282435818164	253.1505663420299	1435.69581	776.3841571307688	183.13646434439585	1410.00269	717.3547790369806	117.66248098578433	1443.78989	687.4419247880148	16.70105742519314	1384.68086	-910.66144000056	19.100949841125157	1360.54715	-818.7288755976534	-2.9337052094290357	1393.66603	-749.8211135228394	-7.967141922177987	970.9177	173.7502946003243	-56.34027012065704	529.902	154.91105036113277	-52.89142258984049	526.48615	69.18485121020002	-6.472655997235378	526.11487	111.16164904712713	4.202761943916542	970.69492	-176.43813721898036	-52.4470844570433	530.34755	-167.129765011545	-54.9286364572866	525.74358	-81.44531086549944	-5.792413133263381	525.14952	-120.21502615475859	4.184162629315843	489.87717	113.19859773889402	-65.15878510380563	84.20807999999998	159.9376263592535	-62.42643575103414	81.46055	94.46235845622533	6.446377874631693	491.5851	-121.80923400364996	-43.2451973494118	84.50511000000002	-179.65206100747585	-45.111687218095064	80.71798	-114.19136572310386	-102.54497907994454	-7.138061680832742E-15	116.5733938275516	65.85805157663908	0.5197999999999917	136.02998858176954	39.01727203710951	3.415849999999987	210.73746245898997	73.99786302815315	2.153469999999989	180.00084158371618	-64.39963399699207	5.198029999999992	130.10783807163028	160.9817792166146	1.3366399999999872	211.271319303988	-82.88626860439346	8.233123562730805E-15	-134.45711152738943	84.04805213644715	-0.81682999999999	-163.69433657752444	52.90058872458432	2.5990100000000145	-236.72578742128536	89.60623589342973	0.8910900000000128	-208.07393324242236	-45.61473213114084	4.901000000000009	-150.1518263752195	174.560970405029	-0.594059999999985	-244.42756976003747	
21	0.333	0.27251342782887567	1002.4029	-1.2145871027443063	66.85039864298344	1106.21498	142.77657304411923	77.6483771244829	1104.13577	-141.32263430487333	22.356602820961086	1177.0567	115.28742802945779	31.226121198654923	1175.27452	-118.39228843937386	-61.37735014328098	944.25923	55.367988882107625	-56.96115412430704	943.36814	-61.43970699893867	-69.42066921614841	1025.8683	-4.067033822198177	-30.316359348769712	1117.72491	-3.1837053074150683	-32.11434355425845	1234.68058	-4.821985312302211	-51.298502415932035	1339.458	-7.237687463410836	51.096001943497356	1595.72087	-9.34231142977543	-94.5821764572866	1535.34947	-12.76336488553458	-76.70676626564136	1443.4186	-10.160063543598675	80.70958076658097	1471.19093	-5.535414545302028	-104.64636431106513	1594.82978	-11.371320185872614	-32.59149196523592	1861.11741	-13.500500021738441	-25.08273449116531	1755.89444	54.28617053145872	-59.69672802238063	1762.65188	-86.2560540196159	-97.41072463314171	1764.28555	-2.2205957332972575	-71.96739641911583	1577.75054	176.92850708635925	-58.96747486426233	1576.11687	-200.39067754105693	-39.65239162006918	1505.64644	451.10643692757844	15.23998399345652	1474.75529	437.2678334167971	-34.533515706718674	1464.0622	-468.9000762319854	19.384223279194515	1432.94828	-452.0901195848243	80.76333507680778	1435.69581	683.6302202582596	71.59129348997521	1487.67611	695.6552822957882	-11.044096954110017	1465.91864	434.5257770482354	-23.257714167831182	1384.16106	-715.5099773934019	-42.47951933285077	1434.06214	-723.9495942343982	-0.010802438136806813	1425.59678	-452.65542962830136	253.04912529554485	1435.62155	776.4113381772537	183.03502329791075	1409.92843	717.3819600834657	117.59817859955336	1443.78989	687.4047997880149	16.535313992477143	1384.23532	-910.671383954075	19.100949841125157	1360.17586	-818.7288755976534	-2.8965802094290325	1393.29474	-749.8854159090704	-7.892886922177993	970.9177	173.6216811676083	-56.303145120657035	529.902	154.84674797490175	-52.91860363632552	526.48615	69.08341016371499	-6.499828383466372	526.11487	111.06021300064211	4.212705897431505	970.62067	-176.6038806516964	-52.47426550352834	530.27329	-167.23120605803004	-54.8915064572866	525.74358	-81.50962191198445	-5.755283133263383	525.07526	-120.27933720124362	4.156981582830809	489.80292	113.09715669240899	-65.15878510380563	84.20807999999998	159.9376263592535	-62.42643575103414	81.46055	94.46235845622533	6.41919682814666	491.5851	-121.91067505013498	-43.2451973494118	84.43085000000002	-179.65206100747585	-45.111687218095064	80.64372	-114.19136572310386	-102.54497907994454	-7.138061680832742E-15	116.5733938275516	65.85805157663908	0.5197999999999917	136.02998858176954	39.01727203710951	3.415849999999987	210.73746245898997	73.99786302815315	2.153469999999989	180.00084158371618	-64.39963399699207	5.198029999999992	130.10783807163028	160.9817792166146	1.3366399999999872	211.271319303988	-82.88626860439346	8.233123562730805E-15	-134.45711152738943	84.04805213644715	-0.81682999999999	-163.69433657752444	52.90058872458432	2.5990100000000145	-236.72578742128536	89.60623589342973	0.8910900000000128	-208.07393324242236	-45.61473213114084	4.901000000000009	-150.1518263752195	174.560970405029	-0.594059999999985	-244.42756976003747	
22	0.35	0.28246238134384327	1002.4029	-1.380339195714371	66.86034259649841	1106.21498	142.6108296114032	77.62119607799788	1104.13577	-141.4240753513584	22.329421774476053	1176.98245	115.18598698297276	31.198948812423936	1175.27452	-118.49372448585889	-61.36739752951196	944.18497	55.2022504493916	-56.95120517079206	943.36814	-61.60545909190873	-69.3464092161484	1025.79404	-4.195655915168239	-30.343545395254747	1117.72491	-3.285137693646063	-32.10439960074348	1234.60632	-4.987728745018239	-51.32567480216302	1339.458	-7.33912350989587	51.096001943497356	1595.72087	-9.34231142977543	-94.60936250377165	1535.34947	-12.864797271765577	-76.73394731212639	1443.4186	-10.261504590083703	80.68239972009594	1471.19093	-5.636855591787056	-104.6735366972961	1594.75552	-11.472756232357648	-32.655803011720955	1861.11741	-13.537630021738442	-25.109915537650345	1755.89444	54.1847294849737	-59.761039068865664	1762.65188	-86.2931840196159	-97.41072463314171	1764.28555	-2.2205957332972575	-72.09600985183187	1577.67628	176.85425208635922	-59.03177725049332	1576.11687	-200.42780254105693	-39.67957766655422	1505.57218	451.00500454134743	15.314238993456541	1474.82955	437.139219984081	-34.43207466023364	1463.91369	-468.9272572784705	19.485659325679563	1432.79977	-452.11729197105535	80.73615403032272	1435.62155	683.5287792117745	71.6284234899752	1487.67611	695.5909712493032	-11.006966954110027	1465.91864	434.4614660017504	-23.193403121346194	1383.71551	-715.4728473934019	-42.37807828636568	1433.6166	-723.9767752808832	0.05350860834823834	1425.44827	-452.6182996283014	252.98482290931383	1435.5473	776.3742131772536	183.03502329791075	1409.85418	717.3819600834657	117.63530859955335	1443.71563	687.3404887415298	16.471002945992097	1383.64126	-910.7085139540751	19.165260887610202	1359.65606	-818.6917455976535	-2.8322691629439873	1392.84919	-749.8482859090703	-7.818626922177998	970.9177	173.49305907463824	-56.22888512065704	529.902	154.7181258819317	-52.881478636325525	526.48615	69.019107777484	-6.4255733834663715	526.04061	110.93159956792607	4.222663511200523	970.62067	-176.76962774466645	-52.501451550013364	530.27329	-167.33263844426105	-54.91869250377165	525.74358	-81.61105429821546	-5.782455519494363	525.07526	-120.38077324772865	4.194111582830807	489.80292	113.03284564592396	-65.12165510380561	84.20807999999998	159.87331531276845	-62.42643575103414	81.46055	94.46235845622533	6.41919682814666	491.5851	-121.91067505013498	-43.2451973494118	84.43085000000002	-179.65206100747585	-45.111687218095064	80.64372	-114.19136572310386	-102.54497907994454	-7.138061680832742E-15	116.5733938275516	65.85805157663908	0.5197999999999917	136.02998858176954	39.01727203710951	3.415849999999987	210.73746245898997	73.99786302815315	2.153469999999989	180.00084158371618	-64.39963399699207	5.198029999999992	130.10783807163028	160.9817792166146	1.3366399999999872	211.271319303988	-82.88626860439346	8.233123562730805E-15	-134.45711152738943	84.04805213644715	-0.81682999999999	-163.69433657752444	52.90058872458432	2.5990100000000145	-236.72578742128536	89.60623589342973	0.8910900000000128	-208.07393324242236	-45.61473213114084	4.901000000000009	-150.1518263752195	174.560970405029	-0.519799999999985	-244.42756976003747	
